<svg width="192" height="279" viewBox="0 0 192 279" fill="none" xmlns="http://www.w3.org/2000/svg">
<mask id="mask0" mask-type="alpha" maskUnits="userSpaceOnUse" x="0" y="0" width="192" height="279">
<path d="M79.4427 117.265C73.6544 61.301 37.1419 0 0 0H191.941C146.823 0 123.559 76.3355 115.26 117.265C106.961 158.194 124.456 236.811 124.456 251.518C124.456 266.225 113.162 278.44 98.4589 278.44C83.7562 278.44 72.4616 266.225 72.4616 251.74C72.4616 237.256 86.0829 181.432 79.4427 117.265Z" fill="#613419"/>
</mask>
<g mask="url(#mask0)">
<path d="M79.4427 117.265C73.6544 61.301 37.1419 0 0 0H191.941C146.823 0 123.559 76.3355 115.26 117.265C106.961 158.194 124.456 236.811 124.456 251.518C124.456 266.225 113.162 278.44 98.4589 278.44C83.7562 278.44 72.4616 266.225 72.4616 251.74C72.4616 237.256 86.0829 181.432 79.4427 117.265Z" fill="#613419"/>
<path d="M79.4427 117.265C73.6544 61.301 37.1419 0 0 0H191.941C146.823 0 123.559 76.3355 115.26 117.265C106.961 158.194 124.456 236.811 124.456 251.518C124.456 266.225 113.162 278.44 98.4589 278.44C83.7562 278.44 72.4616 266.225 72.4616 251.74C72.4616 237.256 86.0829 181.432 79.4427 117.265Z" fill="url(#paint0_linear)" style="mix-blend-mode:multiply"/>
<g style="mix-blend-mode:soft-light" filter="url(#filter0_f)">
<path d="M-14.116 -1.99756C40.4993 -1.99756 69.0547 61.7297 76.4422 114.674C81.9993 154.5 78.6444 196.274 72.197 237.214C70.6635 244.787 65.4993 271 89.4993 277C72.197 269.5 76.4422 250.5 83.3859 201.138C94.6586 121 103.999 42.5 28.469 -1.99065L-14.116 -1.99756Z" fill="white"/>
</g>
<g style="mix-blend-mode:soft-light" filter="url(#filter1_f)">
<path d="M-20.116 -1.99756C34.4993 -1.99756 71.0547 61.7297 78.4422 114.674C83.9993 154.5 78.6444 196.274 72.197 237.214C70.6635 244.787 69.4993 271 93.4993 277C76.197 269.5 80.1084 263.5 86.3859 225.138C92.6633 186.776 101.999 42.5 26.469 -1.99065L-20.116 -1.99756Z" fill="white"/>
</g>
<g filter="url(#filter2_f)">
<path d="M84.9985 270C78.9975 267 75.0985 255.9 77.4985 243.5C77.4985 255 80.4993 264.5 84.9985 270Z" fill="white"/>
</g>
<g filter="url(#filter3_f)">
<path d="M79.999 226.5C86.2342 166.508 89.3787 115.176 70.1814 66.0483C98.4162 114.598 82.5588 219.877 79.999 226.5Z" fill="white"/>
</g>
<g style="mix-blend-mode:multiply" filter="url(#filter4_f)">
<path d="M125.267 -1.48952C137.465 -1.51457 169.663 -1.60979 181.861 -1.68998C185.234 -1.71503 188.025 0.134218 185.6 3.57212C181.616 9.20398 158.895 14.3097 154.88 19.9748C130.891 53.8259 120.153 108.388 120.153 137.135C120.153 165.883 130.98 163.817 132.639 177.067C134.789 194.257 127.39 216.372 130.437 233.421C131.624 240.061 142.887 253.267 142.682 260.007C142.481 266.753 130.682 273.659 126.377 278.855C122.072 284.052 106.19 277.102 98.396 277.102C107.935 274.7 110.348 272.589 114.418 267.723C122.436 258.14 120.201 246.526 118.357 235.25C69.9995 49.5001 164 19.9748 110.107 -1.44942C93.8368 -22.8737 120.21 -1.47949 125.267 -1.48952Z" fill="#613419"/>
</g>
</g>
<defs>
<filter id="filter0_f" x="-34.116" y="-21.9976" width="145.074" height="318.998" filterUnits="userSpaceOnUse" color-interpolation-filters="sRGB">
<feFlood flood-opacity="0" result="BackgroundImageFix"/>
<feBlend mode="normal" in="SourceGraphic" in2="BackgroundImageFix" result="shape"/>
<feGaussianBlur stdDeviation="10" result="effect1_foregroundBlur"/>
</filter>
<filter id="filter1_f" x="-40.116" y="-21.9976" width="153.615" height="318.998" filterUnits="userSpaceOnUse" color-interpolation-filters="sRGB">
<feFlood flood-opacity="0" result="BackgroundImageFix"/>
<feBlend mode="normal" in="SourceGraphic" in2="BackgroundImageFix" result="shape"/>
<feGaussianBlur stdDeviation="10" result="effect1_foregroundBlur"/>
</filter>
<filter id="filter2_f" x="73.7805" y="240.5" width="14.218" height="32.5" filterUnits="userSpaceOnUse" color-interpolation-filters="sRGB">
<feFlood flood-opacity="0" result="BackgroundImageFix"/>
<feBlend mode="normal" in="SourceGraphic" in2="BackgroundImageFix" result="shape"/>
<feGaussianBlur stdDeviation="1.5" result="effect1_foregroundBlur"/>
</filter>
<filter id="filter3_f" x="6.26465" y="63.0483" width="137.651" height="166.452" filterUnits="userSpaceOnUse" color-interpolation-filters="sRGB">
<feFlood flood-opacity="0" result="BackgroundImageFix"/>
<feBlend mode="normal" in="SourceGraphic" in2="BackgroundImageFix" result="shape"/>
<feGaussianBlur stdDeviation="1.5" result="effect1_foregroundBlur"/>
</filter>
<filter id="filter4_f" x="83.396" y="-25.9795" width="118.119" height="321.764" filterUnits="userSpaceOnUse" color-interpolation-filters="sRGB">
<feFlood flood-opacity="0" result="BackgroundImageFix"/>
<feBlend mode="normal" in="SourceGraphic" in2="BackgroundImageFix" result="shape"/>
<feGaussianBlur stdDeviation="7.5" result="effect1_foregroundBlur"/>
</filter>
<linearGradient id="paint0_linear" x1="94.243" y1="555.023" x2="94.243" y2="-136.812" gradientUnits="userSpaceOnUse">
<stop stop-color="#613419"/>
<stop offset="1" stop-color="#613419" stop-opacity="0"/>
</linearGradient>
</defs>
</svg>
