<svg width="1620" height="1672" viewBox="0 0 1620 1672" fill="none" xmlns="http://www.w3.org/2000/svg" preserveAspectRatio="none">
<mask id="mask0" mask-type="alpha" maskUnits="userSpaceOnUse" x="0" y="0" width="1620" height="1672">
<path d="M471 1656.5C634.458 1656.5 1237 1606.5 1405 1656.5C1800.76 1774.29 1526.59 1175 1526.59 807.999C1526.59 441 1777.5 78.6725 1359.86 20.0001C1200.39 -2.40344 916.704 3.51697 763.5 28.3121C593.5 55.8257 523.853 0.00012207 411 0.00012207C158.5 0.00012207 61.7705 163 101.5 291.5C141.229 420 0 482.501 0 707.501C0 932.501 160 975.501 88.5 1371C34.685 1668.68 327 1656.5 471 1656.5Z" fill="#613419"/>
</mask>
<g mask="url(#mask0)">
<path d="M471 1656.5C634.458 1656.5 1237 1606.5 1405 1656.5C1800.76 1774.29 1526.59 1175 1526.59 807.999C1526.59 441 1777.5 78.6725 1359.86 20.0001C1200.39 -2.40344 916.704 3.51697 763.5 28.3121C593.5 55.8257 523.853 0.00012207 411 0.00012207C158.5 0.00012207 61.7705 163 101.5 291.5C141.229 420 0 482.501 0 707.501C0 932.501 160 975.501 88.5 1371C34.685 1668.68 327 1656.5 471 1656.5Z" fill="#613419"/>
<path d="M471 1765C3172 1979.5 2403 -703.502 471 -30.0005C218.5 -30.0005 17 76.5 101.5 291.5C141.229 420 0 482.5 0 707.5C0 932.5 160 975.5 88.5 1371C34.685 1668.67 272.625 1749.24 471 1765Z" fill="url(#paint0_linear)" style="mix-blend-mode:soft-light"/>
<g style="mix-blend-mode:multiply" filter="url(#filter0_f)">
<path d="M191 1239.5C191 924.481 101.521 874.328 101.521 708.499C101.521 542.671 150.5 537.999 172.5 388.499C191 262.783 134.5 204.69 134.5 204.69C134.5 204.69 145.913 273.732 151.5 311.499C164 395.999 50 502.5 50 727.5C50 952.5 188.5 878.999 128.5 1411C124.93 1442.65 121.5 1471.07 121.5 1471.07C121.5 1471.07 191 1371 191 1239.5Z" fill="#613419"/>
</g>
<g style="mix-blend-mode:soft-light" filter="url(#filter1_f)">
<path d="M142.5 1196.5C142.5 1017.34 37.5215 846.498 37.5215 712.499C37.5215 446.999 132.5 511.999 132.5 292.499C132.5 208.999 127.896 168.642 123 167.295C117.439 165.764 87.7366 238.498 105.5 291.499C141.5 405.998 0 525.999 0 707.499C0 858.755 110.5 980.998 110.5 1184C110.5 1328.5 98.5 1308.93 98.5 1391C98.5 1484.5 142.5 1486.5 142.5 1196.5Z" fill="#AF9E85"/>
</g>
<g filter="url(#filter2_f)">
<path d="M126.984 1205.85C126.665 1120.73 103.783 1022.91 103.322 1027.8C102.86 1032.69 122.262 1120.35 120.615 1212.46C118.968 1304.56 100.775 1400.59 100.775 1400.59C105.369 1392.03 127.229 1271.25 126.984 1205.85Z" fill="url(#paint1_linear)" fill-opacity="0.8"/>
</g>
<g filter="url(#filter3_f)">
<path d="M123.903 1188.44C123.655 1122.22 105.854 1046.13 105.495 1049.93C105.136 1053.73 120.229 1121.93 118.948 1193.58C117.667 1265.23 103.514 1339.94 103.514 1339.94C107.088 1333.28 124.093 1239.32 123.903 1188.44Z" fill="white"/>
</g>
<g filter="url(#filter4_f)">
<path d="M11.5 681C11.5 745.657 23.3553 787.452 23.3553 787.452C23.3553 787.452 22 736.489 21.713 681C21.0821 559 75.8242 469.604 75.8242 469.604C59.6784 492.112 11.5 577.5 11.5 681Z" fill="white"/>
</g>
<g style="mix-blend-mode:soft-light" opacity="0.3" filter="url(#filter5_f)">
<path d="M312.709 290.585C270.989 503.499 257.013 436.937 212.506 598.822C148.907 830.153 254.07 1006.04 270.989 1221C281.466 1354.12 250.549 1495.55 256.633 1496C263.141 1496.48 317.726 1365.37 315.989 1233C312.834 992.629 178.435 823.17 281.154 568.649C334 413.499 312.709 290.585 312.709 290.585Z" fill="white"/>
</g>
<g style="mix-blend-mode:soft-light" opacity="0.3" filter="url(#filter6_f)">
<path d="M1244.21 90.2759C1193.02 351.48 1175.88 269.821 1121.28 468.422C1043.25 752.219 1172.27 967.995 1193.02 1231.71C1205.88 1395.02 1167.95 1568.52 1175.41 1569.08C1183.4 1569.68 1250.36 1408.83 1248.23 1246.43C1244.36 951.545 1079.48 743.653 1205.5 431.405C1270.33 241.067 1244.21 90.2759 1244.21 90.2759Z" fill="white"/>
</g>
<g style="mix-blend-mode:soft-light" opacity="0.4" filter="url(#filter7_f)">
<path d="M291.582 425.594C271.83 510.874 240.751 544.429 218.063 670.49C185.642 850.629 284.92 974.112 296.352 1134.83C303.431 1234.35 287.965 1343.79 291.296 1343.6C294.859 1343.39 323.369 1239.67 321.075 1139.93C316.91 958.834 201.714 842.768 255.286 641.695C313.241 424.172 291.582 425.594 291.582 425.594Z" fill="white"/>
</g>
<g style="mix-blend-mode:soft-light" opacity="0.4" filter="url(#filter8_f)">
<path d="M1218.29 255.906C1194.06 360.528 1155.93 401.694 1128.09 556.346C1088.32 777.341 1210.11 928.83 1224.14 1126C1232.82 1248.1 1213.85 1382.35 1217.94 1382.11C1222.31 1381.86 1257.28 1254.61 1254.47 1132.26C1249.36 910.087 1108.04 767.696 1173.76 521.019C1244.86 254.162 1218.29 255.906 1218.29 255.906Z" fill="white"/>
</g>
<g style="mix-blend-mode:multiply" filter="url(#filter9_f)">
<path d="M371.039 290.585C339.319 452.999 325.343 436.937 280.836 598.822C217.236 830.153 322.4 1006.04 339.319 1221C349.796 1354.12 318.879 1495.54 324.963 1496C331.471 1496.48 434.072 1365.37 432.334 1233C429.179 992.628 294.78 823.17 397.5 568.648C455.516 379.999 371.039 290.585 371.039 290.585Z" fill="#613419"/>
</g>
<g style="mix-blend-mode:multiply" filter="url(#filter10_f)">
<path d="M1315.76 90.2766C1276.85 289.527 1259.7 269.822 1205.1 468.423C1127.08 752.22 1256.09 967.996 1276.85 1231.71C1289.7 1395.02 1251.77 1568.52 1259.24 1569.08C1267.22 1569.68 1393.09 1408.83 1390.96 1246.43C1387.09 951.545 1222.21 743.654 1348.23 431.406C1419.4 199.971 1315.76 90.2766 1315.76 90.2766Z" fill="#613419"/>
</g>
<g style="mix-blend-mode:multiply" filter="url(#filter11_f)">
<path d="M717.125 65.363C677.167 269.955 684.75 341.999 717.125 470.999C749.5 599.999 612 786.999 683 1063C754 1339 651.419 1583.24 659.084 1583.81C667.282 1584.43 829.162 1404.38 843 1237.4C856.838 1070.42 744.662 937.851 794 702.499C843.338 467.147 717.125 65.363 717.125 65.363Z" fill="#613419"/>
</g>
<g style="mix-blend-mode:soft-light" filter="url(#filter12_f)">
<path d="M629.901 135.999C591.847 323.745 596.563 389.534 620.735 507.054C644.907 624.574 525.641 797.682 578.808 1049.09C631.974 1300.51 540.63 1525.46 547.03 1525.87C553.875 1526.3 693.381 1359.2 708.732 1206.24C724.084 1053.29 633.225 933.695 679.823 717.672C726.42 501.649 629.901 135.999 629.901 135.999Z" fill="white"/>
</g>
<g style="mix-blend-mode:multiply" filter="url(#filter13_f)">
<path d="M207.053 280.584C207.053 443.999 191.357 466.937 146.85 628.822C83.2501 860.153 218.414 1036.04 235.333 1251C245.81 1384.12 154.893 1525.54 160.977 1526C167.485 1526.48 250.086 1395.37 248.348 1263C245.193 1022.63 110.794 853.17 183.514 598.648C248.348 423.999 207.053 280.584 207.053 280.584Z" fill="#613419"/>
</g>
<g style="mix-blend-mode:soft-light" opacity="0.5" filter="url(#filter14_f)">
<path d="M296.956 1011.4C313.046 1083.3 298.348 1160.02 298.348 1160.02C298.348 1160.02 301.291 1089.39 285.572 1019.14C269.853 948.896 226 864.498 226 864.498C257.89 894.327 283.486 951.208 296.956 1011.4Z" fill="white"/>
</g>
<g style="mix-blend-mode:soft-light" opacity="0.5" filter="url(#filter15_f)">
<path d="M1224.88 974.573C1244.62 1062.78 1226.59 1156.9 1226.59 1156.9C1226.59 1156.9 1230.2 1070.25 1210.92 984.07C1191.63 897.894 1137.83 794.354 1137.83 794.354C1176.95 830.947 1208.36 900.73 1224.88 974.573Z" fill="white"/>
</g>
<g style="mix-blend-mode:soft-light" opacity="0.8" filter="url(#filter16_f)">
<path d="M594.881 858.882C593.211 748.195 622.674 639.492 622.674 639.492C622.674 639.492 605.93 742.694 607.562 850.831C609.194 958.969 635.635 1096.26 635.635 1096.26C610.217 1042.9 596.279 951.543 594.881 858.882Z" fill="white"/>
</g>
<g filter="url(#filter17_f)">
<path d="M293.629 1016.77C301.338 1055.75 296.661 1096.72 296.661 1096.72C296.661 1096.72 296.68 1058.79 289.148 1020.71C281.616 982.623 262.459 936.381 262.459 936.381C275.866 953.043 287.175 984.132 293.629 1016.77Z" fill="white"/>
</g>
<g filter="url(#filter18_f)">
<path d="M1220.8 981.155C1230.26 1028.98 1224.52 1079.24 1224.52 1079.24C1224.52 1079.24 1224.54 1032.71 1215.3 985.992C1206.06 939.27 1182.56 882.539 1182.56 882.539C1199.01 902.98 1212.88 941.12 1220.8 981.155Z" fill="white"/>
</g>
<g filter="url(#filter19_f)">
<path d="M597.485 880.525C593.533 802.08 609.135 723.456 609.135 723.456C609.135 723.456 602.475 797.529 606.336 874.166C610.197 950.804 622.879 1046.86 622.879 1046.86C611.096 1010.3 600.793 946.194 597.485 880.525Z" fill="white"/>
</g>
</g>
<defs>
<filter id="filter0_f" x="11" y="165.689" width="219" height="1344.38" filterUnits="userSpaceOnUse" color-interpolation-filters="sRGB">
<feFlood flood-opacity="0" result="BackgroundImageFix"/>
<feBlend mode="normal" in="SourceGraphic" in2="BackgroundImageFix" result="shape"/>
<feGaussianBlur stdDeviation="19.5" result="effect1_foregroundBlur"/>
</filter>
<filter id="filter1_f" x="-44" y="123.271" width="230.5" height="1367.79" filterUnits="userSpaceOnUse" color-interpolation-filters="sRGB">
<feFlood flood-opacity="0" result="BackgroundImageFix"/>
<feBlend mode="normal" in="SourceGraphic" in2="BackgroundImageFix" result="shape"/>
<feGaussianBlur stdDeviation="22" result="effect1_foregroundBlur"/>
</filter>
<filter id="filter2_f" x="84.7754" y="1011.62" width="58.211" height="404.968" filterUnits="userSpaceOnUse" color-interpolation-filters="sRGB">
<feFlood flood-opacity="0" result="BackgroundImageFix"/>
<feBlend mode="normal" in="SourceGraphic" in2="BackgroundImageFix" result="shape"/>
<feGaussianBlur stdDeviation="8" result="effect1_foregroundBlur"/>
</filter>
<filter id="filter3_f" x="95.5137" y="1041.79" width="36.3906" height="306.147" filterUnits="userSpaceOnUse" color-interpolation-filters="sRGB">
<feFlood flood-opacity="0" result="BackgroundImageFix"/>
<feBlend mode="normal" in="SourceGraphic" in2="BackgroundImageFix" result="shape"/>
<feGaussianBlur stdDeviation="4" result="effect1_foregroundBlur"/>
</filter>
<filter id="filter4_f" x="1.5" y="459.604" width="84.3242" height="337.849" filterUnits="userSpaceOnUse" color-interpolation-filters="sRGB">
<feFlood flood-opacity="0" result="BackgroundImageFix"/>
<feBlend mode="normal" in="SourceGraphic" in2="BackgroundImageFix" result="shape"/>
<feGaussianBlur stdDeviation="5" result="effect1_foregroundBlur"/>
</filter>
<filter id="filter5_f" x="142.277" y="240.585" width="224.672" height="1305.42" filterUnits="userSpaceOnUse" color-interpolation-filters="sRGB">
<feFlood flood-opacity="0" result="BackgroundImageFix"/>
<feBlend mode="normal" in="SourceGraphic" in2="BackgroundImageFix" result="shape"/>
<feGaussianBlur stdDeviation="25" result="effect1_foregroundBlur"/>
</filter>
<filter id="filter6_f" x="1035.12" y="28.9363" width="275.627" height="1601.49" filterUnits="userSpaceOnUse" color-interpolation-filters="sRGB">
<feFlood flood-opacity="0" result="BackgroundImageFix"/>
<feBlend mode="normal" in="SourceGraphic" in2="BackgroundImageFix" result="shape"/>
<feGaussianBlur stdDeviation="30.67" result="effect1_foregroundBlur"/>
</filter>
<filter id="filter7_f" x="161.588" y="375.594" width="209.618" height="1018" filterUnits="userSpaceOnUse" color-interpolation-filters="sRGB">
<feFlood flood-opacity="0" result="BackgroundImageFix"/>
<feBlend mode="normal" in="SourceGraphic" in2="BackgroundImageFix" result="shape"/>
<feGaussianBlur stdDeviation="25" result="effect1_foregroundBlur"/>
</filter>
<filter id="filter8_f" x="1058.81" y="194.566" width="257.16" height="1248.89" filterUnits="userSpaceOnUse" color-interpolation-filters="sRGB">
<feFlood flood-opacity="0" result="BackgroundImageFix"/>
<feBlend mode="normal" in="SourceGraphic" in2="BackgroundImageFix" result="shape"/>
<feGaussianBlur stdDeviation="30.67" result="effect1_foregroundBlur"/>
</filter>
<filter id="filter9_f" x="180.607" y="210.585" width="331.75" height="1365.42" filterUnits="userSpaceOnUse" color-interpolation-filters="sRGB">
<feFlood flood-opacity="0" result="BackgroundImageFix"/>
<feBlend mode="normal" in="SourceGraphic" in2="BackgroundImageFix" result="shape"/>
<feGaussianBlur stdDeviation="40" result="effect1_foregroundBlur"/>
</filter>
<filter id="filter10_f" x="1082.14" y="-7.86777" width="406.991" height="1675.09" filterUnits="userSpaceOnUse" color-interpolation-filters="sRGB">
<feFlood flood-opacity="0" result="BackgroundImageFix"/>
<feBlend mode="normal" in="SourceGraphic" in2="BackgroundImageFix" result="shape"/>
<feGaussianBlur stdDeviation="49.0721" result="effect1_foregroundBlur"/>
</filter>
<filter id="filter11_f" x="557.896" y="-35.4121" width="387.072" height="1720" filterUnits="userSpaceOnUse" color-interpolation-filters="sRGB">
<feFlood flood-opacity="0" result="BackgroundImageFix"/>
<feBlend mode="normal" in="SourceGraphic" in2="BackgroundImageFix" result="shape"/>
<feGaussianBlur stdDeviation="50.3877" result="effect1_foregroundBlur"/>
</filter>
<filter id="filter12_f" x="425.927" y="15.219" width="405.356" height="1631.43" filterUnits="userSpaceOnUse" color-interpolation-filters="sRGB">
<feFlood flood-opacity="0" result="BackgroundImageFix"/>
<feBlend mode="normal" in="SourceGraphic" in2="BackgroundImageFix" result="shape"/>
<feGaussianBlur stdDeviation="60.39" result="effect1_foregroundBlur"/>
</filter>
<filter id="filter13_f" x="62.9492" y="213.584" width="252.427" height="1379.42" filterUnits="userSpaceOnUse" color-interpolation-filters="sRGB">
<feFlood flood-opacity="0" result="BackgroundImageFix"/>
<feBlend mode="normal" in="SourceGraphic" in2="BackgroundImageFix" result="shape"/>
<feGaussianBlur stdDeviation="33.5" result="effect1_foregroundBlur"/>
</filter>
<filter id="filter14_f" x="207" y="845.498" width="116.487" height="333.518" filterUnits="userSpaceOnUse" color-interpolation-filters="sRGB">
<feFlood flood-opacity="0" result="BackgroundImageFix"/>
<feBlend mode="normal" in="SourceGraphic" in2="BackgroundImageFix" result="shape"/>
<feGaussianBlur stdDeviation="9.5" result="effect1_foregroundBlur"/>
</filter>
<filter id="filter15_f" x="1114.52" y="771.044" width="142.906" height="409.16" filterUnits="userSpaceOnUse" color-interpolation-filters="sRGB">
<feFlood flood-opacity="0" result="BackgroundImageFix"/>
<feBlend mode="normal" in="SourceGraphic" in2="BackgroundImageFix" result="shape"/>
<feGaussianBlur stdDeviation="11.6546" result="effect1_foregroundBlur"/>
</filter>
<filter id="filter16_f" x="567.812" y="612.491" width="94.8226" height="510.764" filterUnits="userSpaceOnUse" color-interpolation-filters="sRGB">
<feFlood flood-opacity="0" result="BackgroundImageFix"/>
<feBlend mode="normal" in="SourceGraphic" in2="BackgroundImageFix" result="shape"/>
<feGaussianBlur stdDeviation="13.5" result="effect1_foregroundBlur"/>
</filter>
<filter id="filter17_f" x="256.459" y="930.381" width="47.6076" height="172.34" filterUnits="userSpaceOnUse" color-interpolation-filters="sRGB">
<feFlood flood-opacity="0" result="BackgroundImageFix"/>
<feBlend mode="normal" in="SourceGraphic" in2="BackgroundImageFix" result="shape"/>
<feGaussianBlur stdDeviation="3" result="effect1_foregroundBlur"/>
</filter>
<filter id="filter18_f" x="1175.2" y="875.178" width="58.405" height="211.427" filterUnits="userSpaceOnUse" color-interpolation-filters="sRGB">
<feFlood flood-opacity="0" result="BackgroundImageFix"/>
<feBlend mode="normal" in="SourceGraphic" in2="BackgroundImageFix" result="shape"/>
<feGaussianBlur stdDeviation="3.6804" result="effect1_foregroundBlur"/>
</filter>
<filter id="filter19_f" x="586.844" y="713.456" width="46.0356" height="343.402" filterUnits="userSpaceOnUse" color-interpolation-filters="sRGB">
<feFlood flood-opacity="0" result="BackgroundImageFix"/>
<feBlend mode="normal" in="SourceGraphic" in2="BackgroundImageFix" result="shape"/>
<feGaussianBlur stdDeviation="5" result="effect1_foregroundBlur"/>
</filter>
<linearGradient id="paint0_linear" x1="2867.5" y1="823.999" x2="-585" y2="823.999" gradientUnits="userSpaceOnUse">
<stop stop-color="#DBC4B6"/>
<stop offset="1" stop-color="#EFBEA0" stop-opacity="0"/>
</linearGradient>
<linearGradient id="paint1_linear" x1="43.9992" y1="1155" x2="617.407" y2="1447.12" gradientUnits="userSpaceOnUse">
<stop stop-color="#815D47"/>
<stop offset="1" stop-color="#ADDBFF"/>
</linearGradient>
</defs>
</svg>
